<?xml version="1.0" encoding="UTF-8"?>
<svg width="10px" height="10px" viewBox="0 0 10 10" version="1.1" xmlns="http://www.w3.org/2000/svg" xmlns:xlink="http://www.w3.org/1999/xlink">
    <!-- Generator: Sketch 46.2 (44496) - http://www.bohemiancoding.com/sketch -->
    <title>Group</title>
    <desc>Created with Sketch.</desc>
    <defs></defs>
    <g id="Design" stroke="none" stroke-width="1" fill="none" fill-rule="evenodd">
        <g id="RR-:-Filter-Sub-Copy-2" transform="translate(-295.000000, -34.000000)" fill-rule="nonzero" fill="#00354C">
            <g id="Group" transform="translate(295.000000, 34.000000)">
                <path d="M5,9.94444444 C7.72222222,9.94444444 9.94444444,7.72222222 9.94444444,5 C9.94444444,2.27777778 7.72222222,0.0555555556 5,0.0555555556 C2.27777778,0.0555555556 0.0555555556,2.27777778 0.0555555556,5 C0.0555555556,7.72222222 2.27777778,9.94444444 5,9.94444444 Z M5,0.611111111 C7.41666667,0.611111111 9.38888889,2.58333333 9.38888889,5 C9.38888889,7.41666667 7.41666667,9.38888889 5,9.38888889 C2.58333333,9.38888889 0.611111111,7.41666667 0.611111111,5 C0.611111111,2.58333333 2.58333333,0.611111111 5,0.611111111 Z" id="Shape"></path>
                <path d="M3.13888889,6.86111111 C3.19444444,6.91666667 3.26388889,6.94444444 3.33333333,6.94444444 C3.40277778,6.94444444 3.47222222,6.91666667 3.52777778,6.86111111 L5,5.38888889 L6.47222222,6.86111111 C6.52777778,6.91666667 6.59722222,6.94444444 6.66666667,6.94444444 C6.73611111,6.94444444 6.80555556,6.91666667 6.86111111,6.86111111 C6.97222222,6.75 6.97222222,6.58333333 6.86111111,6.47222222 L5.38888889,5 L6.86111111,3.52777778 C6.97222222,3.41666667 6.97222222,3.25 6.86111111,3.13888889 C6.75,3.02777778 6.58333333,3.02777778 6.47222222,3.13888889 L5,4.61111111 L3.52777778,3.13888889 C3.41666667,3.02777778 3.25,3.02777778 3.13888889,3.13888889 C3.02777778,3.25 3.02777778,3.41666667 3.13888889,3.52777778 L4.61111111,5 L3.13888889,6.47222222 C3.02777778,6.58333333 3.02777778,6.76388889 3.13888889,6.86111111 Z" id="Shape"></path>
            </g>
        </g>
    </g>
</svg>

