<?xml version="1.0" encoding="UTF-8"?>
<svg width="16px" height="12px" viewBox="0 0 16 12" version="1.1" xmlns="http://www.w3.org/2000/svg" xmlns:xlink="http://www.w3.org/1999/xlink">
    <!-- Generator: Sketch 46.2 (44496) - http://www.bohemiancoding.com/sketch -->
    <title>Shape</title>
    <desc>Created with Sketch.</desc>
    <defs></defs>
    <g id="Design" stroke="none" stroke-width="1" fill="none" fill-rule="evenodd">
        <g id="UE-:-Static-Landing-Copy" transform="translate(-303.000000, -710.000000)" stroke="#DDD5D5" stroke-width="1.5">
            <path d="M316.386741,711 C315.966857,711 315.572229,711.163437 315.275711,711.460197 L309.530653,717.206227 L306.682045,714.356647 C306.385285,714.059401 305.990656,713.895964 305.570772,713.895964 C305.150645,713.895964 304.755774,714.059644 304.45877,714.356647 C303.847036,714.968867 303.847036,715.966001 304.459013,716.57895 L308.419138,720.538346 C308.716141,720.836078 309.110769,721 309.530653,721 C309.837856,721 310.135588,720.910875 310.39155,720.741852 C310.481404,720.682355 310.565186,720.613871 310.640226,720.538589 L317.496557,713.682258 C317.793561,713.38574 317.95724,712.991112 317.95724,712.571228 C317.95724,712.151586 317.794046,711.756958 317.497529,711.460197 C317.201011,711.163437 316.806626,710.999757 316.386741,711 Z" id="Shape"></path>
        </g>
    </g>
</svg>