<?xml version="1.0" encoding="UTF-8"?>
<svg width="123px" height="40px" viewBox="0 0 123 40" version="1.1" xmlns="http://www.w3.org/2000/svg" xmlns:xlink="http://www.w3.org/1999/xlink">
    <!-- Generator: Sketch 46.2 (44496) - http://www.bohemiancoding.com/sketch -->
    <title>Group 4</title>
    <desc>Created with Sketch.</desc>
    <defs></defs>
    <g id="Design" stroke="none" stroke-width="1" fill="none" fill-rule="evenodd">
        <g id="Desktop-HD-:-1440-x-860-:-:-Space-Copy" transform="translate(-899.000000, -329.000000)">
            <g id="Group-4" transform="translate(899.000000, 329.000000)">
                <rect id="Rectangle-2-Copy" fill="#01AF91" x="0" y="0" width="122.5" height="40"></rect>
                <path d="M66.3867414,15.0000003 C65.966857,15.0000003 65.5722288,15.1634371 65.2757112,15.4601975 L59.5306534,21.2062267 L56.682045,18.3566469 C56.3852846,18.0594008 55.9906564,17.8959641 55.570772,17.8959641 C55.1506447,17.8959641 54.7557737,18.0596437 54.4587705,18.3566469 C53.847036,18.968867 53.847036,19.9660014 54.4590133,20.57895 L58.4191375,24.5383457 C58.7161408,24.8360775 59.110769,25 59.5306534,25 C59.8378562,25 60.135588,24.9108747 60.3915499,24.7418525 C60.4814037,24.6823547 60.5651863,24.6138715 60.6402264,24.5385886 L67.4965573,17.6822577 C67.7935605,17.3857402 67.9572401,16.991112 67.9572401,16.5712276 C67.9572401,16.151586 67.7940462,15.7569578 67.4975287,15.4601975 C67.2010111,15.1634371 66.8066258,14.9997574 66.3867414,15.0000003 Z" id="Shape" fill="#44DDC3"></path>
            </g>
        </g>
    </g>
</svg>