<svg width="27" height="16" viewBox="0 0 27 16" xmlns="http://www.w3.org/2000/svg"><title>icon-ecard</title><g fill="none"><path d="M26.581 13.948a.612.612 0 0 0 .05-.56L21.44.65a.615.615 0 0 0-.601-.381L5.352 1.08c-.01 0-.019.004-.029.005a.612.612 0 0 0-.582.41L.806 12.756a.61.61 0 0 0 .088.571c.123.164.32.256.524.245l7.976-.418.614 1.508c.099.242.34.395.601.382l15.486-.812a.613.613 0 0 0 .486-.284zM5.395 3.346l1.28 3.141.681 1.67 1.547 3.793-6.636.347 3.128-8.95zm5.586 10.448L6.28 2.262l14.186-.743 4.701 11.531-14.186.744z" fill="#247BA0"/><path d="M15.093 4.35l-.776 1.334-1.963-.214a.507.507 0 0 0-.424.85l1.568 1.667-.26 1.71a.508.508 0 0 0 .617.569l1.796-.424 1.922 1.33a.506.506 0 0 0 .781-.53l-.413-1.799 1.305-.86a.507.507 0 0 0-.105-.898l-2.136-.78-1.028-1.937a.506.506 0 0 0-.884-.017z" fill="#38C1FB"/></g></svg>