<svg width="21" height="19" viewBox="0 0 21 19" xmlns="http://www.w3.org/2000/svg"><title>icon-comment-submit-hover</title><g fill="none" fill-rule="evenodd"><path d="M.913.5A.916.916 0 0 0 0 1.413v11.87c0 .502.41.913.913.913H11.87l4.565 4.565v-4.565h3.652a.916.916 0 0 0 .913-.913V1.413A.916.916 0 0 0 20.087.5H.913z" fill="#9BDFFC" fill-rule="nonzero"/><path d="M14.258 4c-.28 0-.543.109-.74.307l-3.83 3.83-1.9-1.9a1.04 1.04 0 0 0-.74-.306 1.05 1.05 0 0 0-.741 1.789l2.64 2.639a1.04 1.04 0 0 0 1.314.136c.06-.04.116-.086.166-.136l4.57-4.57a1.04 1.04 0 0 0 .308-.742c0-.28-.109-.542-.307-.74a1.04 1.04 0 0 0-.74-.307z" fill="#00A3E8"/></g></svg>