<?xml version="1.0" encoding="UTF-8"?>
<svg width="25px" height="27px" viewBox="0 0 25 27" version="1.1" xmlns="http://www.w3.org/2000/svg" xmlns:xlink="http://www.w3.org/1999/xlink">
    <!-- Generator: Sketch 46.2 (44496) - http://www.bohemiancoding.com/sketch -->
    <title>Group Copy 3</title>
    <desc>Created with Sketch.</desc>
    <defs></defs>
    <g id="Page-1" stroke="none" stroke-width="1" fill="none" fill-rule="evenodd">
        <g id="Letter-Copy-8" transform="translate(-169.000000, -196.000000)">
            <g id="Group-Copy-3" transform="translate(169.000000, 196.000000)">
                <path d="M22.6666667,25.25 C23.0348921,25.25 23.3611111,24.9004797 23.3611111,24.452381 L23.3611111,16.7142857 C23.3611111,16.266187 23.0348921,15.9166667 22.6666667,15.9166667 L2.44444444,15.9166667 C2.07621897,15.9166667 1.75,16.266187 1.75,16.7142857 L1.75,24.452381 C1.75,24.9004797 2.07621897,25.25 2.44444444,25.25 L22.6666667,25.25 Z M22.6666667,26.75 L2.44444444,26.75 C1.22378103,26.75 0.25,25.7066632 0.25,24.452381 L0.25,16.7142857 C0.25,15.4600035 1.22378103,14.4166667 2.44444444,14.4166667 L22.6666667,14.4166667 C23.8873301,14.4166667 24.8611111,15.4600035 24.8611111,16.7142857 L24.8611111,24.452381 C24.8611111,25.7066632 23.8873301,26.75 22.6666667,26.75 Z" id="Shape" fill="#FFFFFF" fill-rule="nonzero"></path>
                <rect id="Rectangle-path" fill="#38C1FB" fill-rule="nonzero" x="3.88888889" y="6.5" width="2.88888889" height="9.38888889"></rect>
                <rect id="Rectangle-path" fill="#38C1FB" fill-rule="nonzero" x="11.1111111" y="6.5" width="2.88888889" height="9.38888889"></rect>
                <rect id="Rectangle-path" fill="#38C1FB" fill-rule="nonzero" x="18.3333333" y="6.5" width="2.88888889" height="9.38888889"></rect>
                <path d="M0.25,21.452381 L0.25,16.7142857 C0.25,15.4600035 1.22378103,14.4166667 2.44444444,14.4166667 L22.6666667,14.4166667 C23.8873301,14.4166667 24.8611111,15.4600035 24.8611111,16.7142857 L24.8611111,21.452381 C24.8611111,21.4436035 0.25,21.46875 0.25,21.452381 Z" id="Path" fill="#A0E1FD"></path>
                <path d="M4.82055556,0 C5.97611111,0.382777778 7.26166667,1.66833333 7.26166667,3.46666667 C7.26166667,5.005 6.48888889,5.77777778 5.33333333,5.77777778 C4.27166667,5.77777778 3.405,4.91833333 3.405,3.84944444 C3.405,3.22111111 3.70833333,2.65777778 4.17777778,2.31111111 C4.30777778,2.69388889 4.43777778,2.95388889 4.82055556,3.20666667 C4.82055556,3.20666667 5.71611111,2.44111111 4.82055556,0 Z M5.71611111,5.005 C5.71611111,4.57888889 5.33333333,4.23222222 5.33333333,4.23222222 C5.33333333,4.23222222 4.95055556,4.57888889 4.95055556,5.005 C4.95055556,5.43111111 5.24666667,5.77777778 5.33333333,5.77777778 C5.42,5.77777778 5.71611111,5.43111111 5.71611111,5.005 Z" id="Shape" fill="#007FB6" fill-rule="nonzero" transform="translate(5.333333, 2.888889) scale(-1, 1) translate(-5.333333, -2.888889) "></path>
                <path d="M12.0427778,0 C13.1983333,0.382777778 14.4838889,1.66833333 14.4838889,3.46666667 C14.4838889,5.005 13.7111111,5.77777778 12.5555556,5.77777778 C11.4938889,5.77777778 10.6272222,4.91833333 10.6272222,3.84944444 C10.6272222,3.22111111 10.9305556,2.65777778 11.4,2.31111111 C11.53,2.69388889 11.66,2.95388889 12.0427778,3.20666667 C12.0427778,3.20666667 12.9383333,2.44111111 12.0427778,0 Z M12.9383333,5.005 C12.9383333,4.57888889 12.5555556,4.23222222 12.5555556,4.23222222 C12.5555556,4.23222222 12.1727778,4.57888889 12.1727778,5.005 C12.1727778,5.43111111 12.4688889,5.77777778 12.5555556,5.77777778 C12.6422222,5.77777778 12.9383333,5.43111111 12.9383333,5.005 Z" id="Shape" fill="#007FB6" fill-rule="nonzero" transform="translate(12.555556, 2.888889) scale(-1, 1) translate(-12.555556, -2.888889) "></path>
                <path d="M19.265,0 C20.4205556,0.382777778 21.7061111,1.66833333 21.7061111,3.46666667 C21.7061111,5.005 20.9333333,5.77777778 19.7777778,5.77777778 C18.7161111,5.77777778 17.8494444,4.91833333 17.8494444,3.84944444 C17.8494444,3.22111111 18.1527778,2.65777778 18.6222222,2.31111111 C18.7522222,2.69388889 18.8822222,2.95388889 19.265,3.20666667 C19.265,3.20666667 20.1605556,2.44111111 19.265,0 Z M20.1605556,5.005 C20.1605556,4.57888889 19.7777778,4.23222222 19.7777778,4.23222222 C19.7777778,4.23222222 19.395,4.57888889 19.395,5.005 C19.395,5.43111111 19.6911111,5.77777778 19.7777778,5.77777778 C19.8644444,5.77777778 20.1605556,5.43111111 20.1605556,5.005 Z" id="Shape" fill="#007FB6" fill-rule="nonzero" transform="translate(19.777778, 2.888889) scale(-1, 1) translate(-19.777778, -2.888889) "></path>
            </g>
        </g>
    </g>
</svg>