<svg width="25" height="27" viewBox="0 0 25 27" xmlns="http://www.w3.org/2000/svg"><title>icon-ecard-birthday</title><g fill="none" fill-rule="evenodd"><path d="M22.667 25.25c.368 0 .694-.35.694-.798v-7.738c0-.448-.326-.797-.694-.797H2.444c-.368 0-.694.35-.694.797v7.738c0 .448.326.798.694.798h20.223zm0 1.5H2.444c-1.22 0-2.194-1.043-2.194-2.298v-7.738c0-1.254.974-2.297 2.194-2.297h20.223c1.22 0 2.194 1.043 2.194 2.297v7.738c0 1.255-.974 2.298-2.194 2.298z" fill="#38C1FB" fill-rule="nonzero"/><path fill="#38C1FB" fill-rule="nonzero" d="M3.889 6.5h2.889v9.389H3.889zm7.222 0H14v9.389h-2.889zm7.222 0h2.889v9.389h-2.889z"/><path d="M.25 21.452v-4.738c0-1.254.974-2.297 2.194-2.297h20.223c1.22 0 2.194 1.043 2.194 2.297v4.738c0-.008-24.611.017-24.611 0z" fill="#00A3E8"/><path fill="#00A3E8" d="M1 15.6h23.4v5.2H1z"/><path d="M4.82 0c1.156.383 2.442 1.668 2.442 3.467 0 1.538-.773 2.31-1.929 2.31A1.928 1.928 0 0 1 3.405 3.85c0-.628.303-1.191.773-1.538.13.383.26.643.643.896 0 0 .895-.766 0-3.207zm.896 5.005c0-.426-.383-.773-.383-.773s-.382.347-.382.773c0 .426.296.773.382.773.087 0 .383-.347.383-.773zM12.043 0c1.155.383 2.44 1.668 2.44 3.467 0 1.538-.772 2.31-1.927 2.31a1.928 1.928 0 0 1-1.929-1.928c0-.628.304-1.191.773-1.538.13.383.26.643.643.896 0 0 .895-.766 0-3.207zm.895 5.005c0-.426-.382-.773-.382-.773s-.383.347-.383.773c0 .426.296.773.383.773.086 0 .382-.347.382-.773zM19.265 0c1.156.383 2.441 1.668 2.441 3.467 0 1.538-.773 2.31-1.928 2.31a1.928 1.928 0 0 1-1.929-1.928c0-.628.304-1.191.773-1.538.13.383.26.643.643.896 0 0 .896-.766 0-3.207zm.896 5.005c0-.426-.383-.773-.383-.773s-.383.347-.383.773c0 .426.296.773.383.773.086 0 .383-.347.383-.773z" fill="#C8EFFF" fill-rule="nonzero"/></g></svg>