<svg width="28" height="28" viewBox="0 0 28 28" xmlns="http://www.w3.org/2000/svg"><title>icon-ecard-congratulations</title><g fill="none"><path d="M10.976 5.675c.15 0 .336 0 .485.037a2.331 2.331 0 0 1 1.494-2.277c.261-.112.56-.15.858-.15.672 0 1.27.299 1.718.747l1.717-1.792a1.307 1.307 0 0 0-.037-1.867A1.296 1.296 0 0 0 16.277 0c-.336 0-.709.15-.97.41L10.08 5.862c.299-.112.597-.186.896-.186zM8.11 17.845a2.76 2.76 0 0 1 1.27-1.082c.298-.112.634-.187.97-.187.485 0 .97.15 1.381.373l.523.336-.037-.074-.374-1.008-2.949-7.355a2.269 2.269 0 0 1-.037-1.643l-.448.448-2.838 2.95.598-4.667a1.565 1.565 0 0 0-.486-1.381c-.26-.224-.56-.411-.933-.448h-.224c-.821 0-1.53.597-1.643 1.456L.046 19.413c-.15.635.075 1.307.523 1.755l4.89 4.704c.374.336.822.523 1.307.523.336 0 .672-.075.97-.262l4.145-2.501-2.95-2.128c-1.194-.821-1.568-2.427-.82-3.659zM19.787 4.592l.261.635 1.083-1.12a1.307 1.307 0 0 0-.038-1.867 1.296 1.296 0 0 0-.933-.373c-.336 0-.71.149-.933.41l-.934.934c.672.186 1.232.709 1.494 1.381z" fill="#9BDFFC"/><path d="M26.908 16.277l-3.77-9.445c-.187-.448-.635-.747-1.083-.747-.15 0-.299.038-.448.075a1.153 1.153 0 0 0-.635 1.53l1.83 4.555c.074.15.037.299 0 .448-.075.15-.187.262-.336.299-.075.037-.15.037-.224.037-.224 0-.448-.149-.56-.373l-3.136-7.803c-.187-.448-.635-.746-1.083-.746-.15 0-.299.037-.448.074-.597.224-.896.934-.672 1.531l3.136 7.803c.075.149.037.298 0 .448-.075.149-.187.261-.336.298-.075.038-.15.038-.224.038-.224 0-.448-.15-.56-.374l-3.51-8.848c-.186-.448-.634-.746-1.082-.746-.15 0-.299.037-.448.074-.597.224-.896.934-.672 1.531l3.547 8.885c.074.15.037.299 0 .448-.075.15-.187.262-.336.299-.075.037-.15.037-.224.037-.224 0-.448-.149-.56-.373l-3.136-7.803c-.187-.448-.635-.746-1.083-.746-.15 0-.299.037-.448.074-.597.224-.896.934-.672 1.531l3.323 8.363 1.12 2.8a.18.18 0 0 1-.075.224c-.037.037-.075.037-.15.037-.037 0-.074 0-.111-.037l-3.024-1.867a1.346 1.346 0 0 0-.747-.224c-.187 0-.373.037-.56.112a1.373 1.373 0 0 0-.71.597c-.41.672-.223 1.606.486 2.016l10.08 7.318c.336.224.71.373 1.12.373.224 0 .485-.037.71-.15l5.3-2.127c.785-.299 1.27-1.12 1.158-1.979l-.747-7.467z" fill="#00A3E8"/></g></svg>