<?xml version="1.0" encoding="UTF-8"?>
<svg width="21px" height="23px" viewBox="0 0 21 23" version="1.1" xmlns="http://www.w3.org/2000/svg" xmlns:xlink="http://www.w3.org/1999/xlink">
    <!-- Generator: Sketch 46.2 (44496) - http://www.bohemiancoding.com/sketch -->
    <title>Group 5 Copy</title>
    <desc>Created with Sketch.</desc>
    <defs>
        <path d="M12.8059967,14.95 L15.6061717,12.4308915 C15.7299611,12.3193663 15.7096391,12.1540042 15.5613759,12.0609983 C15.4131127,11.9679924 15.1919744,11.98307 15.068185,12.0944313 L12.081288,14.7817699 C12.0268775,14.8304444 12,14.8902632 12,14.95 C12,15.0098188 12.0268775,15.0695557 12.081288,15.1182302 L15.068185,17.8055688 C15.1919744,17.9169301 15.4130034,17.9320077 15.5613759,17.8390018 C15.7100761,17.745832 15.7301796,17.5807977 15.6061717,17.4691086 L12.8059967,14.95 Z" id="path-1"></path>
        <path d="M5.80599675,14.95 L8.60617169,12.4308915 C8.72996108,12.3193663 8.70963908,12.1540042 8.56137589,12.0609983 C8.41311269,11.9679924 8.19197437,11.98307 8.06818498,12.0944313 L5.081288,14.7817699 C5.02687748,14.8304444 5,14.8902632 5,14.95 C5,15.0098188 5.02687748,15.0695557 5.081288,15.1182302 L8.06818498,17.8055688 C8.19197437,17.9169301 8.41300344,17.9320077 8.56137589,17.8390018 C8.71007611,17.745832 8.7301796,17.5807977 8.60617169,17.4691086 L5.80599675,14.95 Z" id="path-2"></path>
    </defs>
    <g id="Page-1" stroke="none" stroke-width="1" fill="none" fill-rule="evenodd">
        <g id="Desktop-HD-:-1440-x-860-Copy-6" transform="translate(-1057.000000, -35.000000)">
            <g id="Group-5-Copy" transform="translate(1057.000000, 35.000000)">
                <path d="M1.64285714,20.457483 C1.64285714,20.4986334 1.67993798,20.5357143 1.72108844,20.5357143 L18.8146259,20.5357143 C18.8557763,20.5357143 18.8928571,20.4986334 18.8928571,20.457483 L18.8928571,9.58333333 L1.64285714,9.58333333 L1.64285714,20.457483 Z M0,8.6852381 L0,4.51457143 C0,3.8387 0.44005102,3.28571429 0.977891156,3.28571429 L2.11107143,3.28571429 L2.11107143,0.739280701 L5.70892867,0.739280701 L5.70892867,3.28571429 L14.8185714,3.28571429 L14.8185714,0.739280701 L18.4164286,0.739280701 L18.4164286,3.28571429 L19.5578231,3.28571429 C20.0956633,3.28571429 20.5357143,3.8387 20.5357143,4.51457143 L20.5357143,8.6852381 L20.5357143,20.457483 C20.5357143,21.4059584 19.7631012,22.1785714 18.8146259,22.1785714 L1.72108844,22.1785714 C0.772613037,22.1785714 0,21.4059584 0,20.457483 L0,8.6852381 Z M2.9325,3.28571429 L2.93367347,3.28571429 L2.93367347,5.74342858 L4.88945578,5.74342858 L4.88945578,4.02499499 L4.88750009,4.02499499 L4.88750009,1.56070927 L2.9325,1.56070927 L2.9325,3.28571429 Z M15.64,3.28571429 L15.6462585,3.28571429 L15.6462585,5.74342858 L17.6020408,5.74342858 L17.6020408,4.02499499 L17.5950001,4.02499499 L17.5950001,1.56070927 L15.64,1.56070927 L15.64,3.28571429 Z" id="Combined-Shape" fill="#FFFFFF" fill-rule="nonzero"></path>
                <g id="Shape" transform="translate(13.843742, 14.950000) scale(-1, 1) rotate(180.000000) translate(-13.843742, -14.950000) ">
                    <use fill="#FFFFFF" fill-rule="evenodd" xlink:href="#path-1"></use>
                    <path stroke="#FFFFFF" stroke-width="0.25" d="M12.9928956,14.95 L15.6898262,17.3762274 C15.8771143,17.5449104 15.8451059,17.808737 15.6277659,17.9449139 C15.4329313,18.0670442 15.1506255,18.0478697 14.9845793,17.898494 L11.9979468,15.2113927 C11.9190251,15.140791 11.875,15.0480047 11.875,14.95 C11.875,14.8520535 11.9190455,14.7591909 11.9976823,14.6888447 L14.9845848,12.0015011 C15.1506278,11.8521284 15.4330623,11.8329481 15.627801,11.9551082 C15.844714,12.0911784 15.8768443,12.3552831 15.6897731,12.5238205 L12.9928956,14.95 Z"></path>
                </g>
                <g id="Shape" transform="translate(6.843742, 14.950000) rotate(180.000000) translate(-6.843742, -14.950000) ">
                    <use fill="#FFFFFF" fill-rule="evenodd" xlink:href="#path-2"></use>
                    <path stroke="#FFFFFF" stroke-width="0.25" d="M5.99289562,14.95 L8.68982619,17.3762274 C8.87711427,17.5449104 8.84510589,17.808737 8.62776591,17.9449139 C8.43293128,18.0670442 8.15062553,18.0478697 7.98457932,17.898494 L4.99794685,15.2113927 C4.91902512,15.140791 4.875,15.0480047 4.875,14.95 C4.875,14.8520535 4.91904549,14.7591909 4.99768234,14.6888447 L7.98458478,12.0015011 C8.15062775,11.8521284 8.43306231,11.8329481 8.62780102,11.9551082 C8.84471404,12.0911784 8.87684434,12.3552831 8.68977305,12.5238205 L5.99289562,14.95 Z"></path>
                </g>
            </g>
        </g>
    </g>
</svg>