<svg width="27" height="16" viewBox="0 0 27 16" xmlns="http://www.w3.org/2000/svg"><title>icon-ecard-hover</title><g fill="none"><path d="M26.581 13.948a.613.613 0 0 1-.486.284l-15.486.812a.614.614 0 0 1-.6-.382l-.615-1.508-7.976.418a.616.616 0 0 1-.612-.816L4.74 1.495a.612.612 0 0 1 .582-.41c.01 0 .02-.004.03-.005L20.837.27a.615.615 0 0 1 .6.381l5.194 12.737a.612.612 0 0 1-.05.561zM5.344 3.295l-3.128 8.951 6.636-.347-1.547-3.793-.68-1.67-1.281-3.14zm5.586 10.448L6.23 2.21l14.186-.743 4.701 11.531-14.186.744z" fill="#EC5901"/><path d="M15.042 4.3l-.776 1.333-1.963-.214a.507.507 0 0 0-.424.85l1.568 1.667-.26 1.71a.508.508 0 0 0 .617.569L15.6 9.79l1.922 1.33a.506.506 0 0 0 .781-.53l-.413-1.799 1.305-.86a.507.507 0 0 0-.105-.898l-2.136-.78-1.028-1.937a.506.506 0 0 0-.884-.017z" fill="#FFF"/></g></svg>