<svg width="20" height="21" viewBox="0 0 20 21" xmlns="http://www.w3.org/2000/svg" xmlns:xlink="http://www.w3.org/1999/xlink"><title>icon-outlook-secondary-hover</title><defs><path id="a" d="M7.578.016v8.292H.053V.016h7.525z"/><path id="c" d="M0 20.054h11.724V.022H0z"/></defs><g fill="none" fill-rule="evenodd"><g transform="translate(12.399 6.554)"><mask id="b" fill="#fff"><use xlink:href="#a"/></mask><path d="M.053 3.038v5.27h6.63s.971-.135.89-1.408L7.578.016 2.722 3.302S1.347 4.412.053 3.038" fill="#BC1713" mask="url(#b)"/></g><path d="M12.452 4.12h6.685s.786-.054.786.803L13.88 8.947l-1.429-.91V4.12zM5.86 7.786c-.71 0-1.284.943-1.284 2.105 0 1.163.575 2.106 1.284 2.106.708 0 1.283-.943 1.283-2.106 0-1.162-.575-2.105-1.283-2.105" fill="#BC1713"/><g transform="translate(0 .032)"><mask id="d" fill="#fff"><use xlink:href="#c"/></mask><path d="M5.891 13.419c-1.474 0-2.67-1.591-2.67-3.553 0-1.963 1.196-3.554 2.67-3.554s2.67 1.591 2.67 3.554c0 1.962-1.196 3.553-2.67 3.553zM0 2.045v15.712l11.724 2.297V.022L0 2.045z" fill="#BC1713" mask="url(#d)"/></g></g></svg>