<?xml version="1.0" encoding="UTF-8"?>
<svg width="25px" height="27px" viewBox="0 0 25 27" version="1.1" xmlns="http://www.w3.org/2000/svg" xmlns:xlink="http://www.w3.org/1999/xlink">
    <!-- Generator: Sketch 46.2 (44496) - http://www.bohemiancoding.com/sketch -->
    <title>Group 5 Copy 2</title>
    <desc>Created with Sketch.</desc>
    <defs></defs>
    <g id="Page-1" stroke="none" stroke-width="1" fill="none" fill-rule="evenodd">
        <g id="Letter-Copy-7" transform="translate(-169.000000, -556.000000)">
            <g id="Group-5-Copy-2" transform="translate(169.000000, 556.000000)">
                <g id="Group-7">
                    <path d="M2,24.9047619 C2,24.9548581 2.04514189,25 2.0952381,25 L22.9047619,25 C22.9548581,25 23,24.9548581 23,24.9047619 L23,11.6666667 L2,11.6666667 L2,24.9047619 Z M0,10.5733333 L0,5.496 C0,4.6732 0.535714286,4 1.19047619,4 L2.57,4 L2.57,0.899993896 L6.95000011,0.899993896 L6.95000011,4 L18.04,4 L18.04,0.899993896 L22.4200001,0.899993896 L22.4200001,4 L23.8095238,4 C24.4642857,4 25,4.6732 25,5.496 L25,10.5733333 L25,24.9047619 C25,26.0594276 24.0594276,27 22.9047619,27 L2.0952381,27 C0.940572393,27 0,26.0594276 0,24.9047619 L0,10.5733333 Z M3.57,4 L3.57142857,4 L3.57142857,6.99200001 L5.95238095,6.99200001 L5.95238095,4.8999939 L5.95000011,4.8999939 L5.95000011,1.8999939 L3.57,1.8999939 L3.57,4 Z M19.04,4 L19.047619,4 L19.047619,6.99200001 L21.4285714,6.99200001 L21.4285714,4.8999939 L21.4200001,4.8999939 L21.4200001,1.8999939 L19.04,1.8999939 L19.04,4 Z" id="Combined-Shape" fill="#FFFFFF" fill-rule="nonzero"></path>
                    <polygon id="Shape" fill="#007FB6" points="12.6447368 13 13.985 17.2024805 18.2894737 17.2024805 14.8157895 19.8034511 16.1328947 24 12.6447368 21.4197897 9.15657895 24 10.4736842 19.8034511 7 17.2024805 11.3044737 17.2024805"></polygon>
                </g>
            </g>
        </g>
    </g>
</svg>