<svg width="25" height="21" viewBox="0 0 25 21" xmlns="http://www.w3.org/2000/svg"><title>icon-ecard-thankyou</title><g fill="none" fill-rule="evenodd"><path d="M17.426 0a2.323 2.323 0 0 1 2.353 2.353 2.323 2.323 0 0 1-2.353 2.353 2.323 2.323 0 0 1-2.352-2.353A2.323 2.323 0 0 1 17.426 0zM7.647 0A2.323 2.323 0 0 1 10 2.353a2.323 2.323 0 0 1-2.353 2.353 2.323 2.323 0 0 1-2.353-2.353A2.323 2.323 0 0 1 7.647 0z" fill="#00A3E8"/><path d="M12.5 20.294A12.49 12.49 0 0 1 0 7.794s6.25 2.72 12.72 2.72c6.618 0 12.206-2.72 12.206-2.72.074 6.912-5.514 12.5-12.426 12.5z" fill="#9BDFFC"/></g></svg>