<svg width="24" height="13" viewBox="0 0 24 13" xmlns="http://www.w3.org/2000/svg"><title>icon-ecard-contrast</title><g fill="none" fill-rule="evenodd"><path fill="#BC1713" fill-rule="nonzero" d="M3.344 2.295l1.28 3.141.681 1.67L6.852 10.9l-6.636.347z"/><path fill="#FFF" d="M8.93 12.743L4.23 1.21 18.415.468l4.701 11.531z"/><path d="M13.042 3.3l-.776 1.333-1.963-.214a.507.507 0 0 0-.424.85l1.568 1.667-.26 1.71a.508.508 0 0 0 .617.569L13.6 8.79l1.922 1.33a.506.506 0 0 0 .781-.53l-.413-1.799 1.305-.86a.507.507 0 0 0-.105-.898l-2.136-.78-1.028-1.937a.506.506 0 0 0-.884-.017z" fill="#FFCB00" fill-rule="nonzero"/></g></svg>