<svg width="23" height="13" viewBox="0 0 23 13" xmlns="http://www.w3.org/2000/svg"><title>Group 9</title><g fill="none"><path d="M20.58 5.882a18.581 18.581 0 0 0-2.07-1.752c-2.162-1.57-4.444-2.505-6.729-2.505-3.375 0-6.8 1.984-8.95 4.348l-.144.16c.06.068.127.141.2.22 2.15 2.344 5.548 4.287 8.894 4.287 2.285 0 4.567-.935 6.728-2.505a18.581 18.581 0 0 0 2.322-2.003c-.08-.08-.163-.164-.251-.25zm1.137 1.662a20.194 20.194 0 0 1-2.253 1.906c-2.414 1.754-5.004 2.815-7.683 2.815-3.875 0-7.662-2.165-10.09-4.811a12.163 12.163 0 0 1-.712-.83L.6 6.13l.38-.493c.12-.155.338-.417.647-.756C4.057 2.21 7.871 0 11.781 0c2.679 0 5.27 1.06 7.683 2.815.835.607 1.59 1.256 2.253 1.906.401.393.686.703.842.888l.441.523-.441.524c-.156.185-.44.495-.842.888z" fill="#BC1613"/><path d="M12.052 10.06a3.656 3.656 0 1 1 0-7.313 3.656 3.656 0 0 1 0 7.313zm-.31-4.867c.661-.078 1.117.344 1.032 1.028a.813.813 0 0 0 1.613.2c.218-1.764-1.158-3.04-2.837-2.842a.812.812 0 0 0 .191 1.614z" fill="#BC1713"/></g></svg>