<svg width="17" height="17" viewBox="0 0 17 17" xmlns="http://www.w3.org/2000/svg" xmlns:xlink="http://www.w3.org/1999/xlink"><title>like</title><defs><path d="M4.349 9.532V7.907c.32-.047.759-.182.996-.289.743-.332 1.597-1.332 2.985-2.538C11.137 2.637 10.686.004 11.596.004c1.846 0 1.217 5.27-.862 6.982-.044.035-.016.11.043.11H14.4c3.158 0 2.538 2.55.77 2.48h-.351c-.21.003-.087-.016-.087 0 .008.102 1.419.197 1.249 1.553-.138 1.087-1.637.755-1.657.858-.007.043 1.519.364 1.072 1.59-.3.826-1.376.703-1.412.79-.02.055.839.427.44 1.269-.586 1.241-3.353.969-6.12.969-1.301 0-2.049-.72-3.954-1.016V9.532z" id="a"/><path id="b" d="M0 7.116h3.163v9.488H0z"/></defs><g fill="none"><use fill="#38C1FB" fill-rule="evenodd" xlink:href="#a"/><path stroke="#38C1FB" d="M4.849 8.312c.255-.066.515-.154.701-.238.398-.177.784-.476 1.385-1.03.16-.148.777-.729.79-.74.345-.324.632-.585.933-.846.196-.17.38-.345.554-.524a8.224 8.224 0 0 0 1.635-2.402c.226-.501.696-1.86.647-1.733.1-.259.132-.295.102-.295.43 0 .715.885.544 2.289-.189 1.555-.868 3.102-1.724 3.807-.412.337-.16.997.361.997H14.4c1.177 0 1.72.36 1.733.78.01.37-.384.721-.942.699h-.445a.37.37 0 0 1 .063.01c.048.005.048.005.224.116.193.585.193.585-.094.806-.212.07-.212.07-.25.06a.152.152 0 0 1-.03.017c-.03.012-.056.003-.114-.067a2.29 2.29 0 0 0 .573.265c.291.163.418.378.367.784-.027.21-.144.307-.422.36a2.583 2.583 0 0 1-.518.035c-.108 0-.146.001-.197.005-.059.005-.059.005-.157.03-.158.046-.158.046-.358.396-.086.477.986.898.807.789.312.19.41.385.286.723-.058.161-.174.261-.367.33-.14.051-.05.036-.533.103a1.034 1.034 0 0 0-.143.028c-.16.045-.28.112-.361.312-.025.383-.025.383.063.496.055.066.055.066.088.095.05.042.05.042.088.07.067.051.104.082.142.12.139.14.169.251.069.463-.281.596-1.352.742-4.401.695a79.727 79.727 0 0 0-1.268-.012c-.331 0-.635-.053-.998-.165-.22-.068-1.125-.4-1.061-.378a9.964 9.964 0 0 0-1.394-.392V8.312zm9.775 3.261l-.06-.023c.024-.008.039-.011.06.023zm1.055.705a1.94 1.94 0 0 0-.518-.449 2.97 2.97 0 0 0-.537-.256c.032.05.079.183.191.503-.064.337-.17.37-.388.388l.118-.002c.305 0 .482-.01.707-.053a1.99 1.99 0 0 0 .427-.131z"/><use fill="#0A99D6" fill-rule="evenodd" xlink:href="#b"/><path stroke="#0A99D6" d="M.5 7.616h2.163v8.488H.5z"/></g></svg>