<svg width="27" height="15" viewBox="0 0 27 15" xmlns="http://www.w3.org/2000/svg"><title>icon-ecard-active</title><g fill="none" fill-rule="evenodd"><path fill="#00A3E8" d="M4.626 1.313l1.713 4.2.91 2.233 2.069 5.072-8.874.465z"/><path fill="#38C1FB" d="M10.147 14.873L4.619 1.313 21.3.44 26.828 14z"/><path d="M15.093 4.35l-.776 1.334-1.963-.214a.507.507 0 0 0-.424.85l1.568 1.667-.26 1.71a.508.508 0 0 0 .617.569l1.796-.424 1.922 1.33a.506.506 0 0 0 .781-.53l-.413-1.799 1.305-.86a.507.507 0 0 0-.105-.898l-2.136-.78-1.028-1.937a.506.506 0 0 0-.884-.017z" fill="#0066B2" fill-rule="nonzero"/></g></svg>