<svg width="25" height="27" viewBox="0 0 25 27" xmlns="http://www.w3.org/2000/svg"><title>icon-ecard-anniversary-secondary</title><g fill="none" fill-rule="evenodd"><path d="M2 24.905c0 .05.045.095.095.095h20.81c.05 0 .095-.045.095-.095V11.667H2v13.238zM0 10.573V5.496C0 4.673.536 4 1.19 4h1.38V.9h4.38V4h11.09V.9h4.38V4h1.39c.654 0 1.19.673 1.19 1.496v19.409C25 26.059 24.06 27 22.905 27H2.095A2.098 2.098 0 0 1 0 24.905V10.573zM3.57 4h.001v2.992h2.381V4.9H5.95v-3H3.57V4zm15.47 0h.008v2.992h2.38V4.9h-.008v-3h-2.38V4z" fill="#FFCB00" fill-rule="nonzero"/><path fill="#EC5901" d="M12.643 14l1.102 3.457h3.54l-2.856 2.139 1.083 3.452-2.87-2.123-2.868 2.123 1.083-3.452L8 17.456h3.54z"/></g></svg>