<svg width="19" height="19" viewBox="0 0 19 19" xmlns="http://www.w3.org/2000/svg"><title>icon-like</title><g fill="none" stroke-linecap="square"><path d="M5.349 10.532V8.907c.32-.047.759-.182.996-.289.743-.332 1.597-1.332 2.985-2.538 2.807-2.443 2.356-5.076 3.266-5.076 1.846 0 1.217 5.27-.862 6.982-.044.035-.016.11.043.11H15.4c3.158 0 2.538 2.55.77 2.48h-.351c-.21.003-.087-.016-.087 0 .008.102 1.419.197 1.249 1.553-.138 1.087-1.637.755-1.657.858-.007.043 1.519.364 1.072 1.59-.3.826-1.376.703-1.412.79-.02.055.839.427.44 1.269-.586 1.241-3.353.969-6.12.969-1.301 0-2.049-.72-3.954-1.016v-6.057z" stroke="#38C1FB"/><path stroke="#247BA0" d="M1 8.116h3.163v9.488H1z"/></g></svg>