<svg width="22" height="27" viewBox="0 0 22 27" xmlns="http://www.w3.org/2000/svg"><title>icon-like-active</title><g transform="translate(1)" fill="none" fill-rule="evenodd"><g fill-rule="nonzero" stroke-linecap="square"><path d="M4.349 18.532v-1.625c.32-.047.759-.182.996-.289.743-.332 1.597-1.332 2.985-2.538 2.807-2.443 2.356-5.076 3.266-5.076 1.846 0 1.217 5.27-.862 6.982-.044.035-.016.11.043.11H14.4c3.158 0 2.538 2.55.77 2.48h-.351c-.21.003-.087-.016-.087 0 .008.102 1.419.197 1.249 1.553-.138 1.087-1.637.755-1.657.858-.007.043 1.519.364 1.072 1.59-.3.826-1.376.703-1.412.79-.02.055.839.427.44 1.269-.586 1.241-3.353.969-6.12.969-1.301 0-2.049-.72-3.954-1.016v-6.057z" stroke="#38C1FB" fill="#38C1FB"/><path stroke="#0066B2" fill="#0066B2" d="M0 16.116h3.163v9.488H0z"/></g><rect fill="#C8EFFF" x="11" width="2" height="5" rx="1"/><rect fill="#C8EFFF" transform="rotate(90 5.5 10)" x="4.5" y="7.5" width="2" height="5" rx="1"/><rect fill="#C8EFFF" transform="rotate(90 18.5 10)" x="17.5" y="7.5" width="2" height="5" rx="1"/><rect fill="#C8EFFF" transform="rotate(45 16.828 4.828)" x="15.828" y="2.828" width="2" height="4" rx="1"/><rect fill="#C8EFFF" transform="scale(-1 1) rotate(45 0 -11.657)" x="5.828" y="2.828" width="2" height="4" rx="1"/></g></svg>