<svg width="22" height="22" viewBox="0 0 22 22" xmlns="http://www.w3.org/2000/svg"><title>Group 2</title><g fill="none"><circle fill="#0B2D71" cx="11.04" cy="8.215" r="3.477"/><path d="M10.996 0C4.933 0 0 4.933 0 10.996c0 6.064 4.933 10.997 10.996 10.997 6.064 0 10.997-4.933 10.997-10.997C21.993 4.933 17.06 0 10.996 0zm6.045 18.832c-.12-2.742-1.923-5.403-4.133-5.403H9.172c-2.227 0-4.042 2.704-4.135 5.47a9.893 9.893 0 0 1-3.943-7.904c0-5.46 4.443-9.901 9.902-9.901 5.46 0 9.903 4.442 9.903 9.901a9.889 9.889 0 0 1-3.858 7.837z" fill="#0B2D71"/><path d="M11 20.5a9.5 9.5 0 1 0 0-19 9.5 9.5 0 0 0 0 19zm0 1.5C4.925 22 0 17.075 0 11S4.925 0 11 0s11 4.925 11 11-4.925 11-11 11z" fill="#FFF"/></g></svg>