<svg width="22" height="23" viewBox="0 0 22 23" xmlns="http://www.w3.org/2000/svg"><title>Group Copy 3</title><g fill="#EC5800" fill-rule="evenodd"><path fill-rule="nonzero" d="M3.313 5.537h2.461v7.998H3.313zm6.152 0h2.461v7.998H9.465zm6.152 0h2.461v7.998h-2.461z"/><path d="M.852 13.289h19.933v4.43H.852z"/><path d="M19.309 21.51c.313 0 .591-.298.591-.68v-6.592c0-.382-.278-.68-.591-.68H2.082c-.313 0-.591.298-.591.68v6.592c0 .382.278.68.591.68H19.31zm0 1.277H2.082c-1.04 0-1.869-.889-1.869-1.957v-6.592c0-1.068.83-1.957 1.87-1.957h17.226c1.04 0 1.869.889 1.869 1.957v6.592c0 1.068-.83 1.957-1.87 1.957zM4.106 0c.985.326 2.08 1.421 2.08 2.953 0 1.31-.658 1.969-1.643 1.969a1.642 1.642 0 0 1-1.642-1.643c0-.535.258-1.015.658-1.31.11.326.221.547.547.763 0 0 .763-.653 0-2.732zm.763 4.264c0-.363-.326-.659-.326-.659s-.326.296-.326.659c0 .363.252.658.326.658.074 0 .326-.295.326-.658zM10.259 0c.984.326 2.08 1.421 2.08 2.953 0 1.31-.66 1.969-1.644 1.969a1.642 1.642 0 0 1-1.642-1.643c0-.535.258-1.015.658-1.31.11.326.222.547.548.763 0 0 .763-.653 0-2.732zm.763 4.264c0-.363-.327-.659-.327-.659s-.326.296-.326.659c0 .363.253.658.326.658.074 0 .327-.295.327-.658zM16.41 0c.985.326 2.08 1.421 2.08 2.953 0 1.31-.658 1.969-1.642 1.969a1.642 1.642 0 0 1-1.643-1.643c0-.535.258-1.015.658-1.31.111.326.222.547.548.763 0 0 .763-.653 0-2.732zm.764 4.264c0-.363-.326-.659-.326-.659s-.326.296-.326.659c0 .363.252.658.326.658.074 0 .326-.295.326-.658z" fill-rule="nonzero"/></g></svg>