<svg width="22" height="27" viewBox="0 0 22 27" xmlns="http://www.w3.org/2000/svg"><title>Group 4</title><g fill="none" fill-rule="evenodd"><path d="M11 27c-6.075 0-11-1.79-11-4s4.925-4 11-4 11 1.79 11 4-4.925 4-11 4zm0-1.5c4.97 0 9-1.343 9-3s-4.03-3-9-3-9 1.343-9 3 4.03 3 9 3z" fill="#FFF"/><path d="M11 27c-6.075 0-11-1.79-11-4s4.925-4 11-4 11 1.79 11 4-4.925 4-11 4zm0-1.5c4.97 0 9-1.343 9-3s-4.03-3-9-3-9 1.343-9 3 4.03 3 9 3z" fill="#FFF"/><path d="M11.174 0a7.177 7.177 0 0 1 7.174 7.174c0 4.783-7.174 14.826-7.174 14.826S4 11.957 4 7.174A7.177 7.177 0 0 1 11.174 0zm0 3.826a3.345 3.345 0 0 0-3.348 3.348 3.348 3.348 0 1 0 3.348-3.348z" fill="#0B2D71" fill-rule="nonzero"/></g></svg>