<svg width="23" height="21" viewBox="0 0 23 21" xmlns="http://www.w3.org/2000/svg"><title>icon-submit</title><g fill="none" fill-rule="evenodd"><path d="M1 .5c-.55 0-1 .45-1 1v13c0 .55.45 1 1 1h12l5 5v-5h4c.55 0 1-.45 1-1v-13c0-.55-.45-1-1-1H1z" fill-opacity=".5" fill="#38C1FB" fill-rule="nonzero"/><path d="M15.258 4.5c-.28 0-.543.109-.74.307l-3.83 3.83-1.9-1.9a1.04 1.04 0 0 0-.74-.306 1.05 1.05 0 0 0-.741 1.789l2.64 2.639a1.04 1.04 0 0 0 1.314.136c.06-.04.116-.086.166-.136l4.57-4.57a1.04 1.04 0 0 0 .308-.742c0-.28-.109-.542-.307-.74a1.04 1.04 0 0 0-.74-.307z" fill="#FFF"/></g></svg>