<svg width="22" height="24" viewBox="0 0 22 24" xmlns="http://www.w3.org/2000/svg"><title>Group 5 Copy 4</title><g fill="#FFF" fill-rule="evenodd"><path d="M1.714 21.347c0 .043.039.082.082.082h17.837a.085.085 0 0 0 .081-.082V10h-18v11.347zM0 9.063V4.71c0-.705.46-1.282 1.02-1.282h1.183V.77h3.754v2.66h9.506V.77h3.754v2.66h1.191c.561 0 1.02.577 1.02 1.282v16.635c0 .99-.806 1.796-1.795 1.796H1.796c-.99 0-1.796-.806-1.796-1.796V9.063zm3.06-5.634h.001v2.564h2.041V4.2H5.1V1.629H3.06v1.8zm13.26 0h.007v2.564h2.04V4.2h-.007V1.629h-2.04v1.8z" fill-rule="nonzero"/><path d="M10.837 12l.945 2.963h3.034l-2.449 1.833.929 2.96-2.46-1.82-2.458 1.82.928-2.96-2.449-1.833h3.035z"/></g></svg>