<?xml version="1.0" encoding="UTF-8"?>
<svg width="38px" height="35px" viewBox="0 0 38 35" version="1.1" xmlns="http://www.w3.org/2000/svg" xmlns:xlink="http://www.w3.org/1999/xlink">
    <!-- Generator: Sketch 46.2 (44496) - http://www.bohemiancoding.com/sketch -->
    <title>Group</title>
    <desc>Created with Sketch.</desc>
    <defs></defs>
    <g id="Page-1" stroke="none" stroke-width="1" fill="none" fill-rule="evenodd">
        <g id="Letter-Copy-8" transform="translate(-163.000000, -553.000000)">
            <g id="Group" transform="translate(163.000000, 553.000000)">
                <rect id="Rectangle-4" fill="#FFCB00" x="18" y="0" width="1" height="6" rx="0.5"></rect>
                <rect id="Rectangle-4" fill="#FFCB00" transform="translate(34.500000, 13.000000) rotate(90.000000) translate(-34.500000, -13.000000) " x="34" y="10" width="1" height="6" rx="0.5"></rect>
                <rect id="Rectangle-4" fill="#FFCB00" transform="translate(3.500000, 13.000000) rotate(90.000000) translate(-3.500000, -13.000000) " x="3" y="10" width="1" height="6" rx="0.5"></rect>
                <rect id="Rectangle-4" fill="#FFCB00" transform="translate(26.500000, 7.000000) rotate(45.000000) translate(-26.500000, -7.000000) " x="26" y="4" width="1" height="6" rx="0.5"></rect>
                <rect id="Rectangle-4" fill="#FFCB00" transform="translate(9.500000, 7.000000) rotate(-45.000000) translate(-9.500000, -7.000000) " x="9" y="4" width="1" height="6" rx="0.5"></rect>
                <path d="M27.240694,22.225 L23.4866683,12.7375 C23.3008254,12.2875 22.8548026,11.9875 22.4087797,11.9875 C22.2601054,11.9875 22.1114311,12.025 21.9627568,12.0625 C21.3680597,12.2875 21.0707111,13 21.3308911,13.6 L23.1521511,18.175 C23.2264883,18.325 23.1893197,18.475 23.1521511,18.625 C23.077814,18.775 22.9663083,18.8875 22.817634,18.925 C22.7432968,18.9625 22.6689597,18.9625 22.5946225,18.9625 C22.3716111,18.9625 22.1485997,18.8125 22.037094,18.5875 L18.9149339,10.75 C18.7290911,10.3 18.2830682,10 17.8370454,10 C17.6883711,10 17.5396968,10.0375 17.3910225,10.075 C16.7963253,10.3 16.4989768,11.0125 16.7219882,11.6125 L19.8441482,19.45 C19.9184854,19.6 19.8813168,19.75 19.8441482,19.9 C19.7698111,20.05 19.6583054,20.1625 19.5096311,20.2 C19.4352939,20.2375 19.3609568,20.2375 19.2866197,20.2375 C19.0636082,20.2375 18.8405968,20.0875 18.7290911,19.8625 L15.2352453,10.975 C15.0494025,10.525 14.6033796,10.225 14.1573567,10.225 C14.0086825,10.225 13.8600082,10.2625 13.7113339,10.3 C13.1166367,10.525 12.8192882,11.2375 13.0422996,11.8375 L16.5733139,20.7625 C16.6476511,20.9125 16.6104825,21.0625 16.5733139,21.2125 C16.4989768,21.3625 16.3874711,21.475 16.2387968,21.5125 C16.1644596,21.55 16.0901225,21.55 16.0157853,21.55 C15.7927739,21.55 15.5697625,21.4 15.4582568,21.175 L12.3360967,13.3375 C12.1502539,12.8875 11.704231,12.5875 11.2582081,12.5875 C11.1095339,12.5875 10.9608596,12.625 10.8121853,12.6625 C10.2174881,12.8875 9.92013956,13.6 10.143151,14.2 L13.4511539,22.6 L13.4511539,22.6 L14.566211,25.4125 C14.6033796,25.4875 14.566211,25.6 14.4918739,25.6375 C14.4547053,25.675 14.4175368,25.675 14.3431996,25.675 C14.306031,25.675 14.2688625,25.675 14.2316939,25.6375 L11.2210396,23.7625 C10.9980281,23.6125 10.7378481,23.5375 10.4776681,23.5375 C10.2918253,23.5375 10.1059824,23.575 9.92013956,23.65 C9.62279099,23.7625 9.39977956,23.95 9.2139367,24.25 C8.80508241,24.925 8.99092527,25.8625 9.69712813,26.275 L19.7326425,33.625 C20.0671597,33.85 20.4388454,34 20.8476997,34 C21.0707111,34 21.3308911,33.9625 21.5539025,33.85 L26.8318397,31.7125 C27.6123797,31.4125 28.0955712,30.5875 27.9840655,29.725 L27.240694,22.225 C27.240694,22.225 27.240694,22.225 27.240694,22.225 L27.240694,22.225 Z" id="Shape" fill="#FFFFFF" fill-rule="nonzero" transform="translate(18.500000, 22.000000) rotate(66.000000) translate(-18.500000, -22.000000) "></path>
                <path d="M27.240694,22.225 L23.4866683,12.7375 C23.3008254,12.2875 22.8548026,11.9875 22.4087797,11.9875 C22.2601054,11.9875 22.1114311,12.025 21.9627568,12.0625 C21.3680597,12.2875 21.0707111,13 21.3308911,13.6 L23.1521511,18.175 C23.2264883,18.325 23.1893197,18.475 23.1521511,18.625 C23.077814,18.775 22.9663083,18.8875 22.817634,18.925 C22.7432968,18.9625 22.6689597,18.9625 22.5946225,18.9625 C22.3716111,18.9625 22.1485997,18.8125 22.037094,18.5875 L18.9149339,10.75 C18.7290911,10.3 18.2830682,10 17.8370454,10 C17.6883711,10 17.5396968,10.0375 17.3910225,10.075 C16.7963253,10.3 16.4989768,11.0125 16.7219882,11.6125 L19.8441482,19.45 C19.9184854,19.6 19.8813168,19.75 19.8441482,19.9 C19.7698111,20.05 19.6583054,20.1625 19.5096311,20.2 C19.4352939,20.2375 19.3609568,20.2375 19.2866197,20.2375 C19.0636082,20.2375 18.8405968,20.0875 18.7290911,19.8625 L15.2352453,10.975 C15.0494025,10.525 14.6033796,10.225 14.1573567,10.225 C14.0086825,10.225 13.8600082,10.2625 13.7113339,10.3 C13.1166367,10.525 12.8192882,11.2375 13.0422996,11.8375 L16.5733139,20.7625 C16.6476511,20.9125 16.6104825,21.0625 16.5733139,21.2125 C16.4989768,21.3625 16.3874711,21.475 16.2387968,21.5125 C16.1644596,21.55 16.0901225,21.55 16.0157853,21.55 C15.7927739,21.55 15.5697625,21.4 15.4582568,21.175 L12.3360967,13.3375 C12.1502539,12.8875 11.704231,12.5875 11.2582081,12.5875 C11.1095339,12.5875 10.9608596,12.625 10.8121853,12.6625 C10.2174881,12.8875 9.92013956,13.6 10.143151,14.2 L13.4511539,22.6 L13.4511539,22.6 L14.566211,25.4125 C14.6033796,25.4875 14.566211,25.6 14.4918739,25.6375 C14.4547053,25.675 14.4175368,25.675 14.3431996,25.675 C14.306031,25.675 14.2688625,25.675 14.2316939,25.6375 L11.2210396,23.7625 C10.9980281,23.6125 10.7378481,23.5375 10.4776681,23.5375 C10.2918253,23.5375 10.1059824,23.575 9.92013956,23.65 C9.62279099,23.7625 9.39977956,23.95 9.2139367,24.25 C8.80508241,24.925 8.99092527,25.8625 9.69712813,26.275 L19.7326425,33.625 C20.0671597,33.85 20.4388454,34 20.8476997,34 C21.0707111,34 21.3308911,33.9625 21.5539025,33.85 L26.8318397,31.7125 C27.6123797,31.4125 28.0955712,30.5875 27.9840655,29.725 L27.240694,22.225 C27.240694,22.225 27.240694,22.225 27.240694,22.225 L27.240694,22.225 Z" id="Shape" fill="#EC5901" fill-rule="nonzero"></path>
            </g>
        </g>
    </g>
</svg>