<svg width="30" height="20" viewBox="0 0 30 20" xmlns="http://www.w3.org/2000/svg"><title>Group 3</title><g fill="#38C1FB" fill-rule="evenodd"><path d="M13.914 2.222a3.914 3.914 0 1 1 0 7.828 3.914 3.914 0 0 1 0-7.828zm7.723 15.188a11.066 11.066 0 0 1-6.933 2.432 11.07 11.07 0 0 1-6.926-2.426c.176-3.136 2.241-6.305 4.768-6.305h4.319c2.532 0 4.603 3.054 4.771 6.195v.104zM5.093 0a2.87 2.87 0 1 1 0 5.74 2.87 2.87 0 0 1 0-5.74z"/><path d="M10.163 12.397A8.115 8.115 0 0 1 5.08 14.18 8.117 8.117 0 0 1 0 12.4c.13-2.3 1.644-4.623 3.497-4.623h3.167c1.857 0 3.375 2.239 3.499 4.543v.076zM23.981 0a2.87 2.87 0 1 1 0 5.74 2.87 2.87 0 0 1 0-5.74zm5.071 12.397a8.115 8.115 0 0 1-5.084 1.784 8.117 8.117 0 0 1-5.08-1.78c.13-2.3 1.645-4.623 3.498-4.623h3.167c1.857 0 3.375 2.239 3.499 4.543v.076z"/></g></svg>