<?xml version="1.0" encoding="UTF-8"?>
<svg width="27px" height="15px" viewBox="0 0 27 15" version="1.1" xmlns="http://www.w3.org/2000/svg" xmlns:xlink="http://www.w3.org/1999/xlink">
    <!-- Generator: Sketch 46.2 (44496) - http://www.bohemiancoding.com/sketch -->
    <title>ecard</title>
    <desc>Created with Sketch.</desc>
    <defs></defs>
    <g id="Page-1" stroke="none" stroke-width="1" fill="none" fill-rule="evenodd">
        <g id="Letter-Copy-5" transform="translate(-171.000000, -565.000000)">
            <g id="ecard" transform="translate(184.373333, 573.222425) rotate(87.000000) translate(-184.373333, -573.222425) translate(176.873333, 559.222425)">
                <polygon id="Path" fill="#00A3E8" transform="translate(6.061845, 22.737655) rotate(-360.000000) translate(-6.061845, -22.737655) " points="0.194496359 22.3774822 4.47841529 20.8867505 6.75609219 20.0944054 11.9291943 18.2947995 11.9291943 27.1805114"></polygon>
                <polygon id="Path" fill="#38C1FB" points="14.0250859 17.5742377 0.194496359 22.3851253 0.194496359 5.68060178 14.0250859 0.86971419"></polygon>
                <path d="M3.7759262,12.0845126 L5.06678181,12.9292669 L4.74972177,14.8784101 C4.71579857,15.0874924 4.8155727,15.2956877 5.000044,15.4003397 C5.07786782,15.4440186 5.16367358,15.4657472 5.2490359,15.4657472 C5.36610422,15.4657472 5.48250738,15.4253941 5.57607335,15.3460182 L7.32367278,13.8675872 L9.01828106,14.2161316 C9.18301925,14.2491679 9.35374388,14.1997243 9.47391629,14.0822125 C9.59453213,13.9647007 9.64818845,13.7953064 9.61803449,13.6299031 L9.28877983,11.8144572 L10.717102,9.96464474 C10.8445912,9.79924139 10.8578944,9.57242152 10.7496949,9.39393667 C10.6417171,9.21500839 10.4337435,9.1212207 10.2293174,9.15691767 L8.41121087,9.47486459 L7.62099971,8.12680514 C7.52432966,7.96184523 7.34074524,7.86739238 7.15228299,7.87781324 C6.9613818,7.89022957 6.79376125,8.00862822 6.71881979,8.18445242 L5.82706073,10.2770486 L3.83889477,11.2025092 C3.67238282,11.2801113 3.56107922,11.4417454 3.54777601,11.6248864 C3.53491623,11.8078056 3.62183059,11.9838515 3.7759262,12.0845126 Z" id="Shape" fill="#007FB6" fill-rule="nonzero"></path>
            </g>
        </g>
    </g>
</svg>