<svg width="20" height="20" viewBox="0 0 20 20" xmlns="http://www.w3.org/2000/svg"><title>Corp Mark</title><path d="M15.037 6.198a1.407 1.407 0 1 1 0-2.815 1.407 1.407 0 0 1 0 2.815zm0 3.432a1.407 1.407 0 1 1 0-2.815 1.407 1.407 0 0 1 0 2.815zm0 3.382a1.407 1.407 0 1 1 0-2.814 1.407 1.407 0 0 1 0 2.814zm0 3.358a1.407 1.407 0 1 1 0-2.814 1.407 1.407 0 0 1 0 2.814zm3.383-6.74a1.407 1.407 0 1 1 0-2.815 1.407 1.407 0 0 1 0 2.815zm0 3.382a1.407 1.407 0 1 1 0-2.814 1.407 1.407 0 0 1 0 2.814zM8.32 2.84a1.407 1.407 0 1 1 0-2.815 1.407 1.407 0 0 1 0 2.815zm0 3.358a1.407 1.407 0 1 1 0-2.815 1.407 1.407 0 0 1 0 2.815zm0 10.172a1.407 1.407 0 1 1 0-2.814 1.407 1.407 0 0 1 0 2.814zm0 3.432a1.407 1.407 0 1 1 0-2.814 1.407 1.407 0 0 1 0 2.814zM11.679 2.84a1.407 1.407 0 1 1 0-2.815 1.407 1.407 0 0 1 0 2.815zm0 3.358a1.407 1.407 0 1 1 0-2.815 1.407 1.407 0 0 1 0 2.815zm0 10.172a1.407 1.407 0 1 1 0-2.814 1.407 1.407 0 0 1 0 2.814zm0 3.432a1.407 1.407 0 1 1 0-2.814 1.407 1.407 0 0 1 0 2.814zM1.531 9.63a1.407 1.407 0 1 1 0-2.815 1.407 1.407 0 0 1 0 2.815zm0 3.382a1.407 1.407 0 1 1 0-2.814 1.407 1.407 0 0 1 0 2.814zm3.358-6.814a1.407 1.407 0 1 1 0-2.815 1.407 1.407 0 0 1 0 2.815zm0 3.432a1.407 1.407 0 1 1 0-2.815 1.407 1.407 0 0 1 0 2.815zm0 3.382a1.407 1.407 0 1 1 0-2.814 1.407 1.407 0 0 1 0 2.814zm0 3.358a1.407 1.407 0 1 1 0-2.814 1.407 1.407 0 0 1 0 2.814z" fill="#FFF"/></svg>