<svg width="122" height="122" viewBox="0 0 122 122" xmlns="http://www.w3.org/2000/svg" xmlns:xlink="http://www.w3.org/1999/xlink"><title>icon-swipe</title><defs><circle id="b" cx="45" cy="45" r="45"/><filter x="-26.7%" y="-26.7%" width="153.3%" height="153.3%" filterUnits="objectBoundingBox" id="a"><feOffset in="SourceAlpha" result="shadowOffsetOuter1"/><feGaussianBlur stdDeviation="8" in="shadowOffsetOuter1" result="shadowBlurOuter1"/><feColorMatrix values="0 0 0 0 0.674509804 0 0 0 0 0.674509804 0 0 0 0 0.674509804 0 0 0 0.190528759 0" in="shadowBlurOuter1"/></filter></defs><g fill="none" fill-rule="evenodd"><g transform="translate(16 16)"><use fill="#000" filter="url(#a)" xlink:href="#b"/><use fill="#FFF" xlink:href="#b"/></g><path d="M55.77 82.073L44.21 67.472l.367-.586c.792-1.268 2.052-1.994 3.457-1.994.938 0 1.849.331 2.632.959l5.866 3.64.002-23.67a2.823 2.823 0 0 1 2.818-2.82h.618a2.823 2.823 0 0 1 2.819 2.821v14.461l1.342.155c.01.001.475.055 1.022.136 1.676.248 3.234.603 4.63 1.057 3.085 1 5.118 2.392 6.043 4.132.814 1.535 1.004 3.928.563 7.113-.22 1.585-.59 3.334-1.102 5.197a55.661 55.661 0 0 1-.918 3.005c-.08.234-.252.72-.35.995H55.77z" fill="#38C1FB"/><path d="M44.04 50.473c0 .335-.226.455-.505.256l-3.323-2.374c-.285-.203-.28-.523 0-.722l3.323-2.374c.284-.203.505-.085.505.255v1.241h8.112c.342 0 .619.275.619.625v1.227a.625.625 0 0 1-.62.625h-8.11v1.241zm30.51 0c0 .335.227.455.506.256l3.323-2.374c.285-.203.28-.523 0-.722l-3.323-2.374c-.285-.203-.505-.085-.505.255v1.241h-7.06a.619.619 0 0 0-.619.625v1.227c0 .345.282.625.62.625h7.059v1.241z" fill="#C8EFFF"/></g></svg>