<?xml version="1.0" encoding="UTF-8"?>
<svg width="21px" height="19px" viewBox="0 0 21 19" version="1.1" xmlns="http://www.w3.org/2000/svg" xmlns:xlink="http://www.w3.org/1999/xlink">
    <!-- Generator: Sketch 46.2 (44496) - http://www.bohemiancoding.com/sketch -->
    <title>Group 2</title>
    <desc>Created with Sketch.</desc>
    <defs></defs>
    <g id="Page-1" stroke="none" stroke-width="1" fill="none" fill-rule="evenodd">
        <g id="Letter-Copy-5" transform="translate(-174.000000, -204.000000)">
            <g id="Group-2" transform="translate(174.000000, 204.000000)">
                <path d="M19.8,0 C20.295,0 20.7,0.405 20.7,0.9 L20.7,13.6 C20.7,14.095 20.295,14.5 19.8,14.5 L9,14.5 L4.5,19 L4.5,14.5 L0.9,14.5 C0.405,14.5 1.26217745e-29,14.095 1.26217745e-29,13.6 L-5.68434189e-14,0.9 C-5.68434189e-14,0.405 0.405,0 0.9,0 L10.35,0 L19.8,0 Z" id="Shape-Copy-5" fill="#38C1FB" fill-rule="nonzero" transform="translate(10.350000, 9.500000) scale(-1, 1) translate(-10.350000, -9.500000) "></path>
                <circle id="Oval" fill="#007FB6" cx="5.5" cy="7.5" r="1.5"></circle>
                <circle id="Oval" fill="#007FB6" cx="10.5" cy="7.5" r="1.5"></circle>
                <circle id="Oval" fill="#007FB6" cx="15.5" cy="7.5" r="1.5"></circle>
            </g>
        </g>
    </g>
</svg>