<?xml version="1.0" encoding="UTF-8"?>
<svg width="18px" height="18px" viewBox="0 0 18 18" version="1.1" xmlns="http://www.w3.org/2000/svg" xmlns:xlink="http://www.w3.org/1999/xlink">
    <!-- Generator: Sketch 46.2 (44496) - http://www.bohemiancoding.com/sketch -->
    <title>like</title>
    <desc>Created with Sketch.</desc>
    <defs></defs>
    <g id="Page-1" stroke="none" stroke-width="1" fill="none" fill-rule="evenodd">
        <g id="Letter-Copy-6" transform="translate(-176.000000, -204.000000)" fill-rule="nonzero">
            <g id="like" transform="translate(177.000000, 204.000000)">
                <g id="Group">
                    <path d="M4.34883721,9.53186047 L4.34883721,7.90697674 C4.66906977,7.85953488 5.10790698,7.72511628 5.34511628,7.61837209 C6.08837209,7.28627907 6.94232558,6.28604651 8.33,5.08023256 C11.1369767,2.63697674 10.6862791,0.00395348837 11.5955814,0.00395348837 C13.4418605,0.00395348837 12.8132558,5.27395349 10.7337209,6.98581395 C10.6902326,7.02139535 10.717907,7.09651163 10.7772093,7.09651163 L14.3986047,7.09651163 C17.5574419,7.09651163 16.9367442,9.64651163 15.1695349,9.57534884 L14.8176744,9.57534884 C14.6081395,9.57930233 14.7306977,9.55953488 14.7306977,9.57534884 C14.7386047,9.67813953 16.15,9.77302326 15.98,11.1290698 C15.8416279,12.2162791 14.3432558,11.884186 14.3234884,11.9869767 C14.3155814,12.0304651 15.8416279,12.3506977 15.3948837,13.5762791 C15.0944186,14.4025581 14.0190698,14.28 13.9834884,14.3669767 C13.9637209,14.4223256 14.8216279,14.7939535 14.4223256,15.6360465 C13.8372093,16.8774419 11.0697674,16.6046512 8.30232558,16.6046512 C7.00162791,16.6046512 6.2544186,15.8851163 4.34883721,15.5886047 L4.34883721,9.53186047 Z" id="Shape" fill="#FFCB00"></path>
                    <rect id="Rectangle-path" stroke="#EC5901" fill="#EC5901" stroke-linecap="square" x="0" y="7.11627907" width="3.1627907" height="9.48837209"></rect>
                </g>
            </g>
        </g>
    </g>
</svg>