<?xml version="1.0" encoding="UTF-8"?>
<svg width="21px" height="23px" viewBox="0 0 21 23" version="1.1" xmlns="http://www.w3.org/2000/svg" xmlns:xlink="http://www.w3.org/1999/xlink">
    <!-- Generator: Sketch 46.2 (44496) - http://www.bohemiancoding.com/sketch -->
    <title>Group 5 Copy</title>
    <desc>Created with Sketch.</desc>
    <defs>
        <path d="M13.8059967,14.95 L16.6061717,12.4308915 C16.7299611,12.3193663 16.7096391,12.1540042 16.5613759,12.0609983 C16.4131127,11.9679924 16.1919744,11.98307 16.068185,12.0944313 L13.081288,14.7817699 C13.0268775,14.8304444 13,14.8902632 13,14.95 C13,15.0098188 13.0268775,15.0695557 13.081288,15.1182302 L16.068185,17.8055688 C16.1919744,17.9169301 16.4130034,17.9320077 16.5613759,17.8390018 C16.7100761,17.745832 16.7301796,17.5807977 16.6061717,17.4691086 L13.8059967,14.95 Z" id="path-1"></path>
        <path d="M4.80599675,14.95 L7.60617169,12.4308915 C7.72996108,12.3193663 7.70963908,12.1540042 7.56137589,12.0609983 C7.41311269,11.9679924 7.19197437,11.98307 7.06818498,12.0944313 L4.081288,14.7817699 C4.02687748,14.8304444 4,14.8902632 4,14.95 C4,15.0098188 4.02687748,15.0695557 4.081288,15.1182302 L7.06818498,17.8055688 C7.19197437,17.9169301 7.41300344,17.9320077 7.56137589,17.8390018 C7.71007611,17.745832 7.7301796,17.5807977 7.60617169,17.4691086 L4.80599675,14.95 Z" id="path-2"></path>
    </defs>
    <g id="Page-1" stroke="none" stroke-width="1" fill="none" fill-rule="evenodd">
        <g id="Desktop-HD-:-1440-x-860-Copy-5" transform="translate(-1142.000000, -35.000000)">
            <g id="Group-5-Copy" transform="translate(1142.000000, 35.000000)">
                <path d="M1.64285714,20.457483 C1.64285714,20.4986334 1.67993798,20.5357143 1.72108844,20.5357143 L18.8146259,20.5357143 C18.8557763,20.5357143 18.8928571,20.4986334 18.8928571,20.457483 L18.8928571,9.58333333 L1.64285714,9.58333333 L1.64285714,20.457483 Z M0,8.6852381 L0,4.51457143 C0,3.8387 0.44005102,3.28571429 0.977891156,3.28571429 L2.11107143,3.28571429 L2.11107143,0.739280701 L5.70892867,0.739280701 L5.70892867,3.28571429 L14.8185714,3.28571429 L14.8185714,0.739280701 L18.4164286,0.739280701 L18.4164286,3.28571429 L19.5578231,3.28571429 C20.0956633,3.28571429 20.5357143,3.8387 20.5357143,4.51457143 L20.5357143,8.6852381 L20.5357143,20.457483 C20.5357143,21.4059584 19.7631012,22.1785714 18.8146259,22.1785714 L1.72108844,22.1785714 C0.772613037,22.1785714 0,21.4059584 0,20.457483 L0,8.6852381 Z M2.9325,3.28571429 L2.93367347,3.28571429 L2.93367347,5.74342858 L4.88945578,5.74342858 L4.88945578,4.02499499 L4.88750009,4.02499499 L4.88750009,1.56070927 L2.9325,1.56070927 L2.9325,3.28571429 Z M15.64,3.28571429 L15.6462585,3.28571429 L15.6462585,5.74342858 L17.6020408,5.74342858 L17.6020408,4.02499499 L17.5950001,4.02499499 L17.5950001,1.56070927 L15.64,1.56070927 L15.64,3.28571429 Z" id="Combined-Shape" fill="#EC5901" fill-rule="nonzero"></path>
                <g id="Shape" transform="translate(14.843742, 14.950000) rotate(180.000000) translate(-14.843742, -14.950000) ">
                    <use fill="#EC5901" fill-rule="evenodd" xlink:href="#path-1"></use>
                    <path stroke="#EC5901" stroke-width="0.25" d="M13.9928956,14.95 L16.6898262,17.3762274 C16.8771143,17.5449104 16.8451059,17.808737 16.6277659,17.9449139 C16.4329313,18.0670442 16.1506255,18.0478697 15.9845793,17.898494 L12.9979468,15.2113927 C12.9190251,15.140791 12.875,15.0480047 12.875,14.95 C12.875,14.8520535 12.9190455,14.7591909 12.9976823,14.6888447 L15.9845848,12.0015011 C16.1506278,11.8521284 16.4330623,11.8329481 16.627801,11.9551082 C16.844714,12.0911784 16.8768443,12.3552831 16.6897731,12.5238205 L13.9928956,14.95 Z"></path>
                </g>
                <g id="Shape" transform="translate(5.843742, 14.950000) scale(-1, 1) rotate(180.000000) translate(-5.843742, -14.950000) ">
                    <use fill="#EC5901" fill-rule="evenodd" xlink:href="#path-2"></use>
                    <path stroke="#EC5901" stroke-width="0.25" d="M4.99289562,14.95 L7.68982619,17.3762274 C7.87711427,17.5449104 7.84510589,17.808737 7.62776591,17.9449139 C7.43293128,18.0670442 7.15062553,18.0478697 6.98457932,17.898494 L3.99794685,15.2113927 C3.91902512,15.140791 3.875,15.0480047 3.875,14.95 C3.875,14.8520535 3.91904549,14.7591909 3.99768234,14.6888447 L6.98458478,12.0015011 C7.15062775,11.8521284 7.43306231,11.8329481 7.62780102,11.9551082 C7.84471404,12.0911784 7.87684434,12.3552831 7.68977305,12.5238205 L4.99289562,14.95 Z"></path>
                </g>
            </g>
        </g>
    </g>
</svg>