<?xml version="1.0" encoding="UTF-8"?>
<svg width="14px" height="14px" viewBox="0 0 14 14" version="1.1" xmlns="http://www.w3.org/2000/svg" xmlns:xlink="http://www.w3.org/1999/xlink">
    <!-- Generator: Sketch 46.2 (44496) - http://www.bohemiancoding.com/sketch -->
    <title>Combined Shape</title>
    <desc>Created with Sketch.</desc>
    <defs></defs>
    <g id="Design" stroke="none" stroke-width="1" fill="none" fill-rule="evenodd">
        <g id="clear-and-reset-calendar" transform="translate(-1185.000000, -88.000000)" stroke="#FF5656" stroke-width="1.5" fill-rule="nonzero">
            <path d="M1193.24877,92.8222995 L1197.31494,92.8222995 C1198.26113,92.8222995 1199.02817,93.5893407 1199.02817,94.5355339 C1199.02817,95.4817271 1198.26113,96.2487683 1197.31494,96.2487683 L1193.24877,96.2487683 L1193.24877,100.31494 C1193.24877,101.261133 1192.48173,102.028175 1191.53553,102.028175 C1190.58934,102.028175 1189.8223,101.261133 1189.8223,100.31494 L1189.8223,96.2487683 L1185.75613,96.2487683 C1184.80993,96.2487683 1184.04289,95.4817271 1184.04289,94.5355339 C1184.04289,93.5893407 1184.80993,92.8222995 1185.75613,92.8222995 L1189.8223,92.8222995 L1189.8223,88.7561276 C1189.8223,87.8099344 1190.58934,87.0428932 1191.53553,87.0428932 C1192.48173,87.0428932 1193.24877,87.8099344 1193.24877,88.7561276 L1193.24877,92.8222995 Z" id="Combined-Shape" transform="translate(1191.535534, 94.535534) rotate(45.000000) translate(-1191.535534, -94.535534) "></path>
        </g>
    </g>
</svg>