<?xml version="1.0" encoding="UTF-8"?>
<svg width="13px" height="13px" viewBox="0 0 13 13" version="1.1" xmlns="http://www.w3.org/2000/svg" xmlns:xlink="http://www.w3.org/1999/xlink">
    <!-- Generator: Sketch 46.2 (44496) - http://www.bohemiancoding.com/sketch -->
    <title>Combined Shape</title>
    <desc>Created with Sketch.</desc>
    <defs></defs>
    <g id="Design" stroke="none" stroke-width="1" fill="none" fill-rule="evenodd">
        <g id="clear-and-reset-calendar" transform="translate(-1185.000000, -88.000000)" stroke="#DDD5D5" fill-rule="nonzero" stroke-width="1.5" fill="#DDD5D5">
            <path d="M1192.49877,93.5722995 L1192.49877,88.7561276 C1192.49877,88.2241479 1192.06751,87.7928932 1191.53553,87.7928932 C1191.00355,87.7928932 1190.5723,88.2241479 1190.5723,88.7561276 L1190.5723,93.5722995 L1185.75613,93.5722995 C1185.22415,93.5722995 1184.79289,94.0035542 1184.79289,94.5355339 C1184.79289,95.0675136 1185.22415,95.4987683 1185.75613,95.4987683 L1190.5723,95.4987683 L1190.5723,100.31494 C1190.5723,100.84692 1191.00355,101.278175 1191.53553,101.278175 C1192.06751,101.278175 1192.49877,100.84692 1192.49877,100.31494 L1192.49877,95.4987683 L1197.31494,95.4987683 C1197.84692,95.4987683 1198.27817,95.0675136 1198.27817,94.5355339 C1198.27817,94.0035542 1197.84692,93.5722995 1197.31494,93.5722995 L1192.49877,93.5722995 Z" id="Combined-Shape" transform="translate(1191.535534, 94.535534) rotate(45.000000) translate(-1191.535534, -94.535534) "></path>
        </g>
    </g>
</svg>