<?xml version="1.0" encoding="UTF-8"?>
<svg width="20px" height="20px" viewBox="0 0 20 20" version="1.1" xmlns="http://www.w3.org/2000/svg" xmlns:xlink="http://www.w3.org/1999/xlink">
    <!-- Generator: Sketch 46.2 (44496) - http://www.bohemiancoding.com/sketch -->
    <title>Shape Copy 19</title>
    <desc>Created with Sketch.</desc>
    <defs></defs>
    <g id="Page-1" stroke="none" stroke-width="1" fill="none" fill-rule="evenodd">
        <g id="Letter" transform="translate(-174.000000, -562.000000)" fill="#FFFFFF">
            <path d="M187.846154,570.461538 C187.846154,568.979159 187.319316,567.711143 186.265625,566.657452 C185.211934,565.603761 183.943918,565.076923 182.461539,565.076923 C180.979159,565.076923 179.711143,565.603761 178.657453,566.657452 C177.603761,567.711143 177.076923,568.979159 177.076923,570.461538 C177.076923,571.943918 177.603761,573.211934 178.657453,574.265625 C179.711143,575.319316 180.979159,575.846154 182.461539,575.846154 C183.943918,575.846154 185.211934,575.319316 186.265625,574.265625 C187.319316,573.211934 187.846154,571.943918 187.846154,570.461538 L187.846154,570.461538 L187.846154,570.461538 L187.846154,570.461538 Z M194,580.461538 C194,580.878207 193.847758,581.23878 193.543269,581.543269 C193.23878,581.847758 192.878208,582 192.461539,582 C192.028844,582 191.668271,581.847758 191.379807,581.543269 L187.257211,577.432692 C185.82291,578.426287 184.224367,578.923077 182.461539,578.923077 C181.3157,578.923077 180.219957,578.700723 179.174279,578.25601 C178.1286,577.811296 177.227168,577.21034 176.469953,576.453125 C175.712736,575.69591 175.111781,574.794476 174.667068,573.748798 C174.222354,572.70312 174,571.607378 174,570.461538 C174,569.315699 174.222354,568.219957 174.667068,567.174279 C175.111781,566.128601 175.712736,565.227167 176.469953,564.469952 C177.227168,563.712737 178.1286,563.111781 179.174279,562.667067 C180.219957,562.222354 181.3157,562 182.461539,562 C183.607378,562 184.70312,562.222354 185.748797,562.667067 C186.794476,563.111781 187.69591,563.712737 188.453125,564.469952 C189.21034,565.227167 189.811296,566.128601 190.25601,567.174279 C190.700724,568.219957 190.923078,569.315699 190.923078,570.461538 C190.923078,572.224368 190.426288,573.82291 189.432693,575.257212 L193.555289,579.379808 C193.851764,579.676283 194,580.036857 194,580.461538 L194,580.461538 L194,580.461538 L194,580.461538 Z" id="Shape-Copy-19"></path>
        </g>
    </g>
</svg>