<?xml version="1.0" encoding="UTF-8"?>
<svg width="8px" height="8px" viewBox="0 0 8 8" version="1.1" xmlns="http://www.w3.org/2000/svg" xmlns:xlink="http://www.w3.org/1999/xlink">
    <!-- Generator: Sketch 46.2 (44496) - http://www.bohemiancoding.com/sketch -->
    <title>Combined Shape</title>
    <desc>Created with Sketch.</desc>
    <defs></defs>
    <g id="Design" stroke="none" stroke-width="1" fill="none" fill-rule="evenodd">
        <g id="UE-:-Static-Landing-Copy-2" transform="translate(-100.000000, -712.000000)" fill-rule="nonzero" fill="#FF5656">
            <path d="M104.714286,715.285714 L104.714286,711.714286 C104.714286,711.319797 104.394489,711 104,711 C103.605511,711 103.285714,711.319797 103.285714,711.714286 L103.285714,715.285714 L99.7142857,715.285714 C99.3197966,715.285714 99,715.605511 99,716 C99,716.394489 99.3197966,716.714286 99.7142857,716.714286 L103.285714,716.714286 L103.285714,720.285714 C103.285714,720.680203 103.605511,721 104,721 C104.394489,721 104.714286,720.680203 104.714286,720.285714 L104.714286,716.714286 L108.285714,716.714286 C108.680203,716.714286 109,716.394489 109,716 C109,715.605511 108.680203,715.285714 108.285714,715.285714 L104.714286,715.285714 Z" id="Combined-Shape" transform="translate(104.000000, 716.000000) rotate(45.000000) translate(-104.000000, -716.000000) "></path>
        </g>
    </g>
</svg>