<?xml version="1.0" encoding="UTF-8"?>
<svg width="123px" height="40px" viewBox="0 0 123 40" version="1.1" xmlns="http://www.w3.org/2000/svg" xmlns:xlink="http://www.w3.org/1999/xlink">
    <!-- Generator: Sketch 46.2 (44496) - http://www.bohemiancoding.com/sketch -->
    <title>Group 7</title>
    <desc>Created with Sketch.</desc>
    <defs>
        <path d="M62.2154072,19.2857143 L62.2154072,15.7142857 C62.2154072,15.3197966 61.8956106,15 61.5011215,15 C61.1066324,15 60.7868358,15.3197966 60.7868358,15.7142857 L60.7868358,19.2857143 L57.2154072,19.2857143 C56.8209181,19.2857143 56.5011215,19.6055109 56.5011215,20 C56.5011215,20.3944891 56.8209181,20.7142857 57.2154072,20.7142857 L60.7868358,20.7142857 L60.7868358,24.2857143 C60.7868358,24.6802034 61.1066324,25 61.5011215,25 C61.8956106,25 62.2154072,24.6802034 62.2154072,24.2857143 L62.2154072,20.7142857 L65.7868358,20.7142857 C66.1813249,20.7142857 66.5011215,20.3944891 66.5011215,20 C66.5011215,19.6055109 66.1813249,19.2857143 65.7868358,19.2857143 L62.2154072,19.2857143 Z" id="path-1"></path>
    </defs>
    <g id="Design" stroke="none" stroke-width="1" fill="none" fill-rule="evenodd">
        <g id="Desktop-HD-:-1440-x-860-:-:-Space-Copy" transform="translate(-1021.000000, -329.000000)">
            <g id="Group-7" transform="translate(1021.000000, 329.000000)">
                <rect id="Rectangle-2-Copy" fill="#DC0000" x="0.5" y="0" width="122.5" height="40"></rect>
                <g id="Combined-Shape" fill-rule="nonzero" transform="translate(61.501122, 20.000000) rotate(45.000000) translate(-61.501122, -20.000000) ">
                    <use fill="#FF5656" fill-rule="evenodd" xlink:href="#path-1"></use>
                    <path stroke="#FF5656" stroke-width="0.5" d="M62.4654072,19.0357143 L65.7868358,19.0357143 C66.3193961,19.0357143 66.7511215,19.4674397 66.7511215,20 C66.7511215,20.5325603 66.3193961,20.9642857 65.7868358,20.9642857 L62.4654072,20.9642857 L62.4654072,24.2857143 C62.4654072,24.8182746 62.0336818,25.25 61.5011215,25.25 C60.9685612,25.25 60.5368358,24.8182746 60.5368358,24.2857143 L60.5368358,20.9642857 L57.2154072,20.9642857 C56.6828469,20.9642857 56.2511215,20.5325603 56.2511215,20 C56.2511215,19.4674397 56.6828469,19.0357143 57.2154072,19.0357143 L60.5368358,19.0357143 L60.5368358,15.7142857 C60.5368358,15.1817254 60.9685612,14.75 61.5011215,14.75 C62.0336818,14.75 62.4654072,15.1817254 62.4654072,15.7142857 L62.4654072,19.0357143 Z"></path>
                </g>
            </g>
        </g>
    </g>
</svg>