<?xml version="1.0" encoding="UTF-8"?>
<svg width="12px" height="12px" viewBox="0 0 12 12" version="1.1" xmlns="http://www.w3.org/2000/svg" xmlns:xlink="http://www.w3.org/1999/xlink">
    <!-- Generator: Sketch 46.2 (44496) - http://www.bohemiancoding.com/sketch -->
    <title>Combined Shape</title>
    <desc>Created with Sketch.</desc>
    <defs></defs>
    <g id="Design" stroke="none" stroke-width="1" fill="none" fill-rule="evenodd">
        <g id="UE-:-Static-Landing-Copy" transform="translate(-98.000000, -710.000000)" stroke="#DDD5D5" stroke-width="1.5" fill-rule="nonzero">
            <path d="M105.464286,714.535714 L108.285714,714.535714 C109.094417,714.535714 109.75,715.191297 109.75,716 C109.75,716.808703 109.094417,717.464286 108.285714,717.464286 L105.464286,717.464286 L105.464286,720.285714 C105.464286,721.094417 104.808703,721.75 104,721.75 C103.191297,721.75 102.535714,721.094417 102.535714,720.285714 L102.535714,717.464286 L99.7142857,717.464286 C98.905583,717.464286 98.25,716.808703 98.25,716 C98.25,715.191297 98.905583,714.535714 99.7142857,714.535714 L102.535714,714.535714 L102.535714,711.714286 C102.535714,710.905583 103.191297,710.25 104,710.25 C104.808703,710.25 105.464286,710.905583 105.464286,711.714286 L105.464286,714.535714 Z" id="Combined-Shape" transform="translate(104.000000, 716.000000) rotate(45.000000) translate(-104.000000, -716.000000) "></path>
        </g>
    </g>
</svg>